<svg id="Capa_1" data-name="Capa 1" xmlns="http://www.w3.org/2000/svg" viewBox="0 0 2500 2500"><defs><style>.cls-1{fill:none;}.cls-2{fill:#fff;}.cls-3{fill:#bababa;}.cls-4{opacity:0.05;isolation:isolate;}</style></defs><title>CSS3 BN</title><path class="cls-1" d="M0,0H2500V2500H0Z" transform="translate(0 0)"/><path class="cls-2" d="M1882.25,2169.83,1250,2340.07,617.72,2169.83,471.82,589.18H2028.17Z" transform="translate(0 0)"/><path class="cls-3" d="M1250,717.21V2204.29l1.43.39,511.66-137.78,118.1-1349.69Z" transform="translate(0 0)"/><path class="cls-2" d="M891.16,357V262.87h137.26V159.93H788.21v291h240.21V357Zm384.18-94.08h96V159.93H1131.07V262.87c32.14,32.14,48.9,47.52,95.39,94-27.18,0-95.39.1-95.39.09v93.92H1371.3V357l-96-94.08Zm340.49,0h96V159.93H1471.54V262.87c32.14,32.14,48.91,47.52,95.4,94-27.17,0-95.4.1-95.4.09v93.92h240.25V357l-96-94.08Z" transform="translate(0 0)"/><path class="cls-2" d="M1249.42,1112.44,796.9,1300.9l15,186.6,437.52-187.07,465.41-199,19.3-190.88-484.71,201.87Z" transform="translate(0 0)"/><path d="M796.89,1300.9l15,186.6,437.52-187.07v-188Z" transform="translate(0 0)"/><path d="M1734.13,910.57l-484.71,201.87v188l465.41-199Z" transform="translate(0 0)"/><path d="M797.59,1300.9l15,186.6,671.32,2.14-15,248.79L1248,1800.62,1035.65,1747l-12.87-154.42H825.47L851.2,1890.7l398.94,118,396.78-115.82,51.48-591.94Z" transform="translate(0 0)"/><path class="cls-4" d="M1249.42,1300.9H796.9l15,186.6,437.52,1.4v-188Zm0,499.13-2.14.6L1035,1747l-12.86-154.42H824.78l25.73,298.12,398.91,118Z" transform="translate(0 0)"/><path d="M756.14,910.57h978l-19.3,190.88H779.73L756.14,910.57Z" transform="translate(0 0)"/><path class="cls-4" d="M1249.42,910.57H756.14l23.59,190.88h469.69V910.57Z" transform="translate(0 0)"/></svg>